<?xml version="1.0" standalone="no"?><!DOCTYPE svg PUBLIC "-//W3C//DTD SVG 1.1//EN" "http://www.w3.org/Graphics/SVG/1.1/DTD/svg11.dtd"><svg t="1642551605925" class="icon" viewBox="0 0 1024 1024" version="1.1" xmlns="http://www.w3.org/2000/svg" p-id="21972" xmlns:xlink="http://www.w3.org/1999/xlink" width="200" height="200"><defs><style type="text/css"></style></defs><path d="M379.868216 58.099775C274.555978 0.110877 144.637479 116.229401 110.052249 225.204859c-49.430012 202.086915-49.110174 404.173829 0.950987 606.260744 38.256979 119.449111 146.14925 203.033637 258.404121 153.172908 162.269123-72.074596 300.789152-178.235473 483.0418-333.480936 131.082712-111.670633 122.971602-175.062673-10.733788-288.950854-174.312118-148.498998-327.28033-232.377776-461.847153-304.106946z" fill="#B0DB00" p-id="21973"></path><path d="M119.843579 299.13452c35.762237-112.378542 170.124362-232.117641 279.035853-172.320589 139.168236 73.968041 297.360481 160.460968 477.634392 313.586967 33.455133 28.414474 59.229872 53.762761 77.277306 77.528912 8.187872-50.55158-27.122326-99.158541-103.546728-164.260652-174.312118-148.490469-327.28033-232.369247-461.847152-304.098417-105.312238-57.988897-235.230738 58.129626-269.820233 167.105085-28.27801 115.628104-40.239979 231.260473-35.949875 346.888577 3.215446-88.143294 15.595337-176.286589 37.216437-264.429883z" fill="#E0F783" opacity=".65" p-id="21974"></path><path d="M935.39827 467.668217c19.10077 60.317323-88.80003 169.403659-427.185161 273.718001-371.140883 114.416981-433.159749-148.788986-433.185336-148.882805 4.273046 79.6697 16.252073 159.309548 35.983992 238.970719 38.256979 119.449111 146.14925 203.029373 258.404121 153.172908 162.269123-72.083125 300.789152-178.244002 483.0418-333.480936 85.085636-72.509576 111.453142-124.668879 82.940584-183.497887z m-11.475814-19.864118c0.48189 1.070394 1.206858 2.187697 2.149316 3.343381-0.716439-1.113039-1.394497-2.221813-2.149316-3.343381z" fill="#759100" opacity=".34" p-id="21975"></path><path d="M368.14506 289.752583c23.228822-52.368264 76.48837-42.854128 150.311418-10.106904 73.823048 32.747223 140.259952 76.326319 117.022601 128.698847-23.228822 52.368264-75.737816 42.099308-149.556598 9.352085-73.823048-32.747223-141.010507-75.575764-117.777421-127.944028z" fill="#FFFFFF" opacity=".34" p-id="21976"></path><path d="M306.825575 1007.850275h-0.008529c-89.861895-0.004265-173.365395-72.228118-207.792837-179.71526l-0.31131-1.100245C48.272196 623.408365 47.88839 416.924734 97.582802 213.302593c17.719067-109.97762 113.982001-199.323508 214.910316-199.323507 28.115958 0 54.986678 6.946898 79.870132 20.648789 148.31136 79.051345 295.616293 162.038839 464.678791 306.060095 78.684597 67.025408 110.783613 114.246401 110.787878 162.989826 0 46.751896-29.924113 92.190321-100.054089 151.931934-185.949984 158.405471-325.280271 264.174012-487.178381 336.086556-24.1329 10.720995-48.956651 16.153989-73.771874 16.153989z m-175.139433-189.579087c29.983816 93.009108 100.305696 155.45869 175.12664 155.462954h0.008529c20.017641 0 40.180276-4.447891 59.924988-13.215737 158.119748-70.236589 295.326306-174.504021 478.900954-330.879581 60.897298-51.882109 88.058004-90.727592 88.058004-125.965293-0.004265-37.05865-29.548836-78.03639-98.791793-137.018919-166.465407-141.807972-312.017624-223.78904-458.806551-302.034391-19.987789-11.002453-41.323166-16.525002-63.618059-16.525002-83.627171 0-166.665839 78.420196-181.322983 171.241665l-0.281459 1.390233c-48.48329 198.24885-48.21889 399.278164 0.80173 597.544071z" fill="#6E6E96" p-id="21977"></path></svg>