<?xml version="1.0" standalone="no"?><!DOCTYPE svg PUBLIC "-//W3C//DTD SVG 1.1//EN" "http://www.w3.org/Graphics/SVG/1.1/DTD/svg11.dtd"><svg t="1642645798913" class="icon" viewBox="0 0 1024 1024" version="1.1" xmlns="http://www.w3.org/2000/svg" p-id="10862" xmlns:xlink="http://www.w3.org/1999/xlink" width="200" height="200"><defs><style type="text/css"></style></defs><path d="M0.01056 511.562569a511.541449 511.541449 0 1 0 150.012906-361.912536A511.98944 511.98944 0 0 0 0.01056 511.562569z" fill="#FEC43C" p-id="10863"></path><path d="M1014.197642 409.356677a511.98944 511.98944 0 1 0-897.069498 428.791156 599.987625 599.987625 0 0 0 292.985957 74.814457 615.923297 615.923297 0 0 0 604.14754-503.669612z" fill="#FFD73A" p-id="10864"></path><path d="M200.390427 586.057033a93.56607 93.56607 0 1 0 93.502071-89.982145 91.838106 91.838106 0 0 0-93.502071 89.982145z m436.406999 0a90.750128 90.750128 0 0 0 69.310571 87.038204 94.974041 94.974041 0 0 0 105.149831-42.047132 87.74219 87.74219 0 0 0-14.911693-108.797756 95.99802 95.99802 0 0 0-112.893671-14.271706 89.598152 89.598152 0 0 0-46.655038 78.07839z m-34.303292 223.99538a160.380692 160.380692 0 0 0-182.908228 1.023979 21.119564 21.119564 0 0 1-26.047463-3.007938 19.647595 19.647595 0 0 1-4.927898-15.871673 20.095586 20.095586 0 0 1 9.087812-14.07971 203.899795 203.899795 0 0 1 228.603286 0 19.199604 19.199604 0 0 1 9.087812 13.631719 18.687615 18.687615 0 0 1-4.991897 15.487681 21.31156 21.31156 0 0 1-27.967423 2.815942z" fill="#68280F" p-id="10865"></path><path d="M878.456442 485.579105a116.413599 116.413599 0 0 1-86.33422-10.943774 110.589719 110.589719 0 0 1-52.926908-67.134616 19.647595 19.647595 0 0 1 14.399703-24.063503 20.35158 20.35158 0 0 1 24.767489 13.951712 72.510504 72.510504 0 0 0 88.382177 49.086987 20.991567 20.991567 0 0 1 25.023484 14.207707 20.223583 20.223583 0 0 1-13.631719 24.831488z m-732.784886 0a116.413599 116.413599 0 0 0 86.334219-10.943774 110.589719 110.589719 0 0 0 52.926908-67.134616 19.647595 19.647595 0 0 0-14.399703-24.063503 20.35158 20.35158 0 0 0-24.767489 13.951712 72.510504 72.510504 0 0 1-88.382177 49.086987 20.991567 20.991567 0 0 0-25.023484 14.207707 20.223583 20.223583 0 0 0 13.631719 24.831488z" fill="#E8AC27" p-id="10866"></path></svg>