<?xml version="1.0" standalone="no"?><!DOCTYPE svg PUBLIC "-//W3C//DTD SVG 1.1//EN" "http://www.w3.org/Graphics/SVG/1.1/DTD/svg11.dtd"><svg t="1642645785804" class="icon" viewBox="0 0 1024 1024" version="1.1" xmlns="http://www.w3.org/2000/svg" p-id="10733" xmlns:xlink="http://www.w3.org/1999/xlink" width="200" height="200"><defs><style type="text/css"></style></defs><path d="M512 512m-505.6 0a505.6 505.6 0 1 0 1011.2 0 505.6 505.6 0 1 0-1011.2 0Z" fill="#FFDA44" p-id="10734"></path><path d="M290.8 322.4c-17.5 0-31.6 14.1-31.6 31.6v63.2c0 17.5 14.1 31.6 31.6 31.6s31.6-14.1 31.6-31.6V354c0-17.4-14.1-31.6-31.6-31.6zM733.2 322.4c-17.5 0-31.6 14.1-31.6 31.6v63.2c0 17.5 14.1 31.6 31.6 31.6s31.6-14.1 31.6-31.6V354c0-17.4-14.2-31.6-31.6-31.6zM664.7 606.9c-17.4-14.5-43.3-12.2-57.9 5.2-4.7 5.7-10 10.9-15.6 15.6-52.4 43.8-130.4 36.8-174.1-15.6-14.5-17.4-40.5-19.7-57.9-5.2s-19.7 40.4-5.2 57.9c72.9 87.2 202.6 98.8 289.8 26 9.4-7.9 18.1-16.6 26-26 14.7-17.5 12.3-43.4-5.1-57.9z" fill="" p-id="10735"></path></svg>