<?xml version="1.0" standalone="no"?><!DOCTYPE svg PUBLIC "-//W3C//DTD SVG 1.1//EN" "http://www.w3.org/Graphics/SVG/1.1/DTD/svg11.dtd"><svg t="1642645807265" class="icon" viewBox="0 0 1024 1024" version="1.1" xmlns="http://www.w3.org/2000/svg" p-id="10993" xmlns:xlink="http://www.w3.org/1999/xlink" width="200" height="200"><defs><style type="text/css"></style></defs><path d="M460.8 601.6L256 806.4l51.2 51.2L512 652.8l204.8 204.8 51.2-51.2-204.8-204.8-51.2-51.2-51.2 51.2z" fill="#55BBFF" p-id="10994"></path><path d="M512 550.4l51.2 51.2 204.8 204.8-51.2 51.2L512 652.8l-204.8 204.8-51.2-51.2 204.8-204.8 51.2-51.2m0-70.4c-19.2 0-38.4 6.4-51.2 19.2l-51.2 51.2-204.8 204.8c-12.8 12.8-25.6 32-25.6 51.2 0 19.2 6.4 38.4 19.2 51.2l57.6 51.2c12.8 12.8 32 19.2 51.2 19.2 19.2 0 38.4-6.4 51.2-19.2L512 755.2l153.6 153.6c12.8 12.8 32 19.2 51.2 19.2s38.4-6.4 51.2-19.2l51.2-51.2c12.8-12.8 19.2-32 19.2-51.2 0-19.2-6.4-38.4-19.2-51.2L614.4 550.4l-51.2-51.2c-12.8-12.8-32-19.2-51.2-19.2z" p-id="10995"></path><path d="M460.8 198.4L256 403.2l51.2 51.2L512 249.6l204.8 204.8 51.2-51.2-204.8-204.8-51.2-51.2-51.2 51.2z" fill="#55BBFF" p-id="10996"></path><path d="M512 147.2l51.2 51.2L768 403.2l-51.2 51.2L512 249.6 307.2 454.4 256 403.2l204.8-204.8 51.2-51.2m0-70.4c-19.2 0-38.4 6.4-51.2 19.2l-51.2 51.2-204.8 204.8c-12.8 12.8-25.6 32-25.6 51.2 0 19.2 6.4 38.4 19.2 51.2l57.6 51.2c12.8 12.8 32 19.2 51.2 19.2 19.2 0 38.4-6.4 51.2-19.2L512 352l153.6 153.6c12.8 12.8 32 19.2 51.2 19.2s38.4-6.4 51.2-19.2l51.2-51.2c12.8-12.8 19.2-32 19.2-51.2 0-19.2-6.4-38.4-19.2-51.2L614.4 147.2l-51.2-51.2c-12.8-12.8-32-19.2-51.2-19.2z" p-id="10997"></path></svg>